<svg width="200" height="200" viewBox="0 0 200 200" fill="none" xmlns="http://www.w3.org/2000/svg">
<mask id="mask0_3_2" style="mask-type:alpha" maskUnits="userSpaceOnUse" x="6" y="6" width="188" height="188">
<rect x="6" y="6" width="188" height="188" fill="#D9D9D9"/>
</mask>
<g mask="url(#mask0_3_2)">
<path d="M100 178.333C89.1639 178.333 78.9806 176.277 69.45 172.165C59.9194 168.052 51.6292 162.471 44.5792 155.421C37.5292 148.371 31.9479 140.081 27.8354 130.55C23.7229 121.019 21.6667 110.836 21.6667 100C21.6667 89.1639 23.7229 78.9806 27.8354 69.45C31.9479 59.9194 37.5292 51.6292 44.5792 44.5792C51.6292 37.5292 59.9194 31.9479 69.45 27.8354C78.9806 23.7229 89.1639 21.6667 100 21.6667C108.486 21.6667 116.515 22.9069 124.088 25.3875C131.66 27.8681 138.644 31.3278 145.042 35.7667L133.683 47.3208C128.722 44.1875 123.435 41.7396 117.821 39.9771C112.207 38.2146 106.267 37.3333 100 37.3333C82.6361 37.3333 67.8507 43.4368 55.6437 55.6437C43.4368 67.8507 37.3333 82.6361 37.3333 100C37.3333 117.364 43.4368 132.149 55.6437 144.356C67.8507 156.563 82.6361 162.667 100 162.667C117.364 162.667 132.149 156.563 144.356 144.356C156.563 132.149 162.667 117.364 162.667 100C162.667 97.65 162.536 95.3 162.275 92.95C162.014 90.6 161.622 88.3153 161.1 86.0958L173.829 73.3667C175.265 77.5444 176.375 81.8528 177.158 86.2917C177.942 90.7306 178.333 95.3 178.333 100C178.333 110.836 176.277 121.019 172.165 130.55C168.052 140.081 162.471 148.371 155.421 155.421C148.371 162.471 140.081 168.052 130.55 172.165C121.019 176.277 110.836 178.333 100 178.333ZM89.0333 136.033L55.7417 102.742L66.7083 91.775L89.0333 114.1L167.367 35.5708L178.333 46.5375L89.0333 136.033Z" fill="#00C2FF"/>
</g>
</svg>
